<?xml version="1.0" encoding="utf-8"?>
<!-- Generator: Adobe Illustrator 22.1.0, SVG Export Plug-In . SVG Version: 6.00 Build 0)  -->
<svg version="1.1" id="Layer_1" xmlns="http://www.w3.org/2000/svg" xmlns:xlink="http://www.w3.org/1999/xlink" x="0px" y="0px"
	 viewBox="0 0 600 113.8" enable-background="new 0 0 600 113.8" xml:space="preserve">
<g>
	<path id="Shape_91_" fill="#FFFFFF" d="M170.7,82.7l-18.1-51.5h9.4c11.1,32.3,12.6,36.9,13.8,40.9c1.1-3.7,2.7-8.7,14.3-40.9h9.4
		l-19,51.5H170.7z"/>
	<polygon id="Shape_90_" fill="#FFFFFF" points="208.4,82.7 208.4,31.2 217.3,31.2 217.3,82.7 	"/>
	<path id="Shape_89_" fill="#FFFFFF" d="M320.2,61c0,7-0.6,11.5-2.5,14.7c-2.9,5.1-9.3,8.1-18.4,8.1c-8.6,0-14.9-2.6-17.9-8.3
		c-1.8-3.3-2.4-8.2-2.4-14V31.2h8.8v30.1c0,4.2,0.3,7.2,1,9.2c1.3,3.3,4.5,5.9,10.9,5.9c5.6,0,9-1.9,10.7-5.4
		c0.8-1.8,1.7-5.1,1.7-9.4V31.2h8.1V61z"/>
	<path id="Shape_88_" fill="#FFFFFF" d="M331.2,72.8c3.9,1.8,9,3.5,14.9,3.5c7,0,10.6-2.6,10.6-7.1c0-3.5-1.2-5.4-8-7.7l-7.2-2.4
		c-7.5-2.5-11.1-7-11.1-14.3c0-7.8,6.2-14.7,19.4-14.7c5.1,0,10.3,0.9,14.4,2.4l-1.9,7.4c-4.2-1.4-9.3-2.4-13.6-2.4
		c-7.1,0-9.1,3.7-9.1,6.8s1,5.1,6.9,7.1l7.2,2.5c8.8,2.9,11.9,7.6,11.9,14.3c0,8.2-5.7,15.4-19.5,15.4c-6.5,0-12.7-1.5-17.2-3.6
		L331.2,72.8z"/>
	<polygon id="Shape_87_" fill="#FFFFFF" points="390.1,82.7 390.1,39.3 374.6,39.3 374.6,31.2 414.3,31.2 414.3,39.3 398.9,39.3 
		398.9,82.7 	"/>
	<polygon id="Shape-Copy_9_" fill="#FFFFFF" points="482,82.7 482,39.3 466.5,39.3 466.5,31.2 506.2,31.2 506.2,39.3 490.8,39.3 
		490.8,82.7 	"/>
	<path id="Shape_86_" fill="#FFFFFF" d="M439.3,83.7c-14.9,0-24.4-12.5-24.4-27.3c0-16.3,9.6-26.3,25.6-26.3
		c15.5,0,23.6,12,23.7,26.3C464.3,71,455,83.7,439.3,83.7z M440,37.5c-10.1,0-15.7,6.4-15.7,19c0,15.4,6.7,19.9,15.5,19.9
		c9.1,0,15.3-5.7,15.3-19.4C455.2,44.7,451.7,37.5,440,37.5z"/>
	<path id="Shape_85_" fill="#FFFFFF" d="M504.4,82.7l19.8-51.5h10.1l19.3,51.5h-9.5l-5-13.5H519l-5.3,13.5H504.4z M536.7,61.6
		c-4.8-13.2-6.3-17.5-7.4-21.1c-1.2,3.5-2.5,7.5-7.8,21.1H536.7z"/>
	<polygon id="Shape_84_" fill="#FFFFFF" points="562.1,82.7 562.1,31.2 571.7,31.2 571.7,74.9 597.4,74.6 597.4,82.7 	"/>
	<path id="Shape_83_" fill="#FFFFFF" d="M2.6,5.5l51.6,51.5L2.6,108.4h114V5.5H2.6z M105.5,97.4H28.6l40.7-40.4L28.6,16.5h76.9V97.4
		z"/>
	<g id="Shape_82_" transform="translate(311.000000, 35.000000)">
		<path fill="#FFFFFF" d="M-53.2,25.4c7.6-2.5,10.6-7.9,10.6-14.5c0-7.1-3.7-11.6-9.1-13.3c-3.2-1-7.8-1.4-12.2-1.4h-7.2h-8.7v51.5
			h8.8l-0.1-21l3-0.2c3.9,0,5.8,0.4,6.7,0.3l11.5,20.9h9.8L-53.2,25.4z M-55.5,18.3c-2.1,1.2-5.2,1.5-8.9,1.5h-6.5V3.5h6.7
			c3.5,0,6.1,0.1,8.2,0.9c2.7,1,4.2,3.5,4.2,7C-52,14.5-53.1,17.1-55.5,18.3z"/>
	</g>
</g>
</svg>
